<?xml version="1.0" encoding="UTF-8" standalone="no"?>
<svg
   xmlns:dc="http://purl.org/dc/elements/1.1/"
   xmlns:cc="http://creativecommons.org/ns#"
   xmlns:rdf="http://www.w3.org/1999/02/22-rdf-syntax-ns#"
   xmlns:svg="http://www.w3.org/2000/svg"
   xmlns="http://www.w3.org/2000/svg"
   xmlns:sodipodi="http://sodipodi.sourceforge.net/DTD/sodipodi-0.dtd"
   xmlns:inkscape="http://www.inkscape.org/namespaces/inkscape"
   width="1400pt"
   height="600pt"
   viewBox="0 0 1400 600"
   version="1.1"
   id="svg3051"
   inkscape:version="0.48.4 r9939"
   sodipodi:docname="header.svg">
  <metadata
     id="metadata3115">
    <rdf:RDF>
      <cc:Work
         rdf:about="">
        <dc:format>image/svg+xml</dc:format>
        <dc:type
           rdf:resource="http://purl.org/dc/dcmitype/StillImage" />
        <dc:title></dc:title>
      </cc:Work>
    </rdf:RDF>
  </metadata>
  <defs
     id="defs3113" />
  <sodipodi:namedview
     pagecolor="#ffffff"
     bordercolor="#666666"
     borderopacity="1"
     objecttolerance="10"
     gridtolerance="10"
     guidetolerance="10"
     inkscape:pageopacity="0"
     inkscape:pageshadow="2"
     inkscape:window-width="1680"
     inkscape:window-height="1028"
     id="namedview3111"
     showgrid="false"
     inkscape:zoom="3.9177756"
     inkscape:cx="1373.5886"
     inkscape:cy="436.63547"
     inkscape:window-x="1358"
     inkscape:window-y="-8"
     inkscape:window-maximized="1"
     inkscape:current-layer="svg3051" />
  <path
     fill="rgba(0,0,0,0)"
     d=" M 0.00 0.00 L 1400.00 0.00 L 1400.00 600.00 L 0.00 600.00 L 0.00 0.00 Z"
     id="path3053"
     style="fill:none" />
  <path
     style="fill:#77b2c9"
     d="M 1371.1562 213 C 1367.8998 212.96172 1364.6437 213.1875 1361.4375 213.6875 C 1354.5375 215.5125 1348.2687 219.39375 1343.7812 224.96875 C 1335.4813 235.44375 1329.8937 249.025 1332.1562 262.5625 C 1333.4312 270.4625 1338.2625 277.0625 1342.6875 283.5 C 1350.55 294.8 1366.0125 300.14375 1379.0625 295.40625 L 1379.125 294.1875 C 1379.2625 290.8625 1380.2375 287.6875 1381.125 284.5 C 1382.8125 276.6625 1383.2875 268.6375 1384.1875 260.6875 L 1384.9375 260.5625 C 1385.825 260.45 1387.6 260.2375 1388.5 260.125 C 1388.2625 263.3125 1387.8 266.475 1387.25 269.625 C 1387.0625 276.725 1386.9 283.8375 1386.9375 290.9375 C 1389.1625 290.475 1392.4687 291.5375 1393.6562 288.9375 C 1396.6312 280.75 1392.85 270.125 1399.375 263.3125 C 1401.5 262.7 1403.6875 262.2625 1405.875 261.8125 C 1404.8875 263.7875 1403.775 265.675 1402.75 267.625 C 1402.6125 271.8875 1402.6312 276.1625 1402.7812 280.4375 L 1403.4375 281.75 C 1407.6125 276.3875 1410.4125 270.15 1413.0625 263.9375 C 1415.3125 264.0125 1417.5375 264.14375 1419.8125 264.28125 C 1419.5875 273.75625 1417.6375 283.975 1422.75 292.625 C 1424.025 294.3375 1425.4125 296.03125 1426.75 297.71875 C 1425.5 298.30625 1424.275 298.9125 1423.0625 299.5 C 1422.6125 301.3375 1422.175 303.18125 1421.75 305.03125 C 1419.775 302.98125 1417.925 300.8375 1416 298.75 C 1408.325 307.6625 1408.3062 320.2125 1408.6562 331.3125 C 1408.4562 334.1375 1409.1812 337.6375 1406.9062 339.8125 C 1405.1813 339.75 1403.5125 340.3 1401.8125 340.25 C 1401.6875 327.4875 1399.2625 313.625 1405.8125 301.9375 C 1405 300.2 1404.2938 298.40625 1403.5312 296.65625 C 1395.9438 296.65625 1388.6312 301.80625 1386.7812 309.28125 C 1385.3812 315.36875 1383.0187 321.7 1384.4062 328 C 1385.5438 332.825 1389.8 335.6125 1393.8125 337.9375 C 1396.025 338.6625 1396.5625 341.85625 1394.375 342.96875 C 1389.5625 346.54375 1383.05 348.0375 1379.75 353.5 C 1374.5875 359.4875 1375.625 367.6875 1375.625 375 C 1375.2125 383.675 1379.0563 391.725 1381.6562 399.8125 C 1383.8312 406.4 1388.4937 412.8 1386.8438 420.0625 C 1385.1062 424.5 1380.0937 425.5875 1376.1562 427.25 C 1363.6312 432.2875 1351.9375 439.25 1341.3125 447.5625 C 1336.9 450.55 1337.1 456.53125 1336.6875 461.28125 C 1335.7 469.89375 1339.8875 477.8625 1340.6875 486.3125 C 1341.15 490.925 1343.0875 495.29375 1343.125 499.96875 C 1343.25 508.30625 1343.2938 516.6625 1342.9688 525 C 1336.6188 529.1 1328.9375 530.86875 1323.0625 535.71875 C 1322.7875 537.23125 1322.875 538.775 1322.8125 540.3125 C 1329.9875 542.675 1337.5875 541.625 1345 541.8125 C 1351.525 541.575 1358.2062 542.4875 1364.5938 540.6875 C 1366.3437 531.2 1360.1125 523.03125 1359.25 513.84375 C 1358.3875 508.80625 1356.4813 503.90625 1356.7812 498.71875 C 1356.2187 492.63125 1360.4125 487.38125 1359.8125 481.28125 C 1360.325 475.58125 1357.1187 470.3 1357.9688 464.625 C 1363.6688 464.4875 1369.4062 464.475 1375.0312 463.375 C 1385.8812 462.475 1395.8563 457.69375 1406.4688 455.59375 C 1408.4688 454.83125 1409.6 456.7375 1410.75 458 C 1415.275 463.15 1418.8625 469.00625 1423 474.46875 C 1426.775 480.28125 1432.9813 483.71875 1438.2188 488.03125 C 1444.3313 493.03125 1451.7875 495.8125 1458.9375 498.9375 C 1469.275 503.5875 1480.3875 506 1491.1875 509.3125 C 1497.275 511.225 1503.7125 512.35 1509.375 515.4375 C 1511.2 518.275 1513.0375 522.0875 1511.75 525.5 C 1508.9375 528.7875 1505.7062 531.65625 1502.7812 534.84375 C 1503.0687 536.69375 1502.5563 539 1504.4688 540.1875 C 1508.7313 541.5125 1513.8312 543.03125 1517.9062 540.34375 C 1524.2813 536.54375 1530.2438 532 1535.9688 527.25 C 1537.5437 525.6375 1540.1 523.88125 1539.25 521.28125 C 1537.35 517.01875 1534.6375 513.15 1531.625 509.625 C 1527.8375 505.8375 1522.05 505.88125 1517.4375 503.65625 C 1510.925 500.64375 1504.5375 497.40625 1498.1875 494.09375 C 1493.7 491.79375 1490.675 487.5625 1486.625 484.6875 C 1479.2625 481.7 1470.625 482.4875 1463.5625 478.9375 C 1457.6125 469.9125 1454.5062 459.2875 1448.3438 450.375 C 1440.9688 440.1625 1440.775 426.275 1431.8125 417 C 1428.6125 414.0625 1424.0812 412.1375 1422.7812 407.625 C 1417.8812 397.775 1421.1562 386.775 1423.0312 376.625 C 1424.7062 371.5 1424.1 366.05625 1425.3125 360.84375 C 1427.2375 351.49375 1427.925 341.525 1425.25 332.25 C 1423.025 321.725 1419.8438 310.625 1423.2812 300 C 1425.2938 300.2875 1427.625 300.55 1428.75 302.5625 C 1435.5875 311.2125 1445.2687 317.8 1456.1562 320 C 1465.6062 322.175 1475.7312 320.0625 1483.9688 315.0625 C 1494.4937 308.4125 1501.8062 297.23125 1504.2812 285.09375 C 1504.8563 277.99375 1504.9313 270.81875 1504.2188 263.71875 C 1502.9188 258.68125 1500.85 253.84375 1498.25 249.34375 C 1493.05 240.63125 1483.575 235.15625 1473.8125 233.21875 C 1467.2 232.80625 1460.5125 232.61875 1453.9375 233.46875 C 1446.9375 235.50625 1440.0062 238.38125 1434.4062 243.15625 C 1428.9813 247.74375 1425.4 253.975 1421.4375 259.75 C 1418.35 259.975 1415.6438 258.6875 1413.4688 256.625 C 1414.2438 243.375 1409.725 229.31875 1398.9375 221.03125 C 1390.6781 215.70625 1380.9256 213.11484 1371.1562 213 z M 1399.0938 245.59375 C 1399.4184 245.59236 1399.7625 245.61797 1400.0938 245.65625 C 1404.5938 246.71875 1406.8 250.98125 1408.0625 255.03125 C 1407.7625 256.78125 1406.7875 257.49375 1405.125 257.15625 C 1402.3625 255.15625 1399.975 252.08125 1396.375 251.71875 C 1394.0375 253.30625 1391.7812 255.21875 1388.7812 254.40625 C 1390.1758 249.95312 1394.2241 245.61458 1399.0938 245.59375 z "
     transform="scale(0.8,0.8)"
     id="path3055" />
  <path
     fill="#888888"
     d=" M 1107.36 208.55 L 1107.95 208.44 C 1108.37 210.90 1109.08 213.30 1109.80 215.69 C 1109.65 221.37 1109.53 227.06 1109.56 232.74 C 1111.34 232.37 1113.98 233.23 1114.93 231.15 C 1117.31 224.60 1114.29 216.11 1119.51 210.66 C 1119.07 211.91 1118.71 213.18 1118.39 214.47 C 1119.11 214.81 1120.54 215.49 1121.26 215.83 C 1120.80 217.73 1120.64 219.68 1120.80 221.62 C 1119.58 221.51 1118.37 221.40 1117.18 221.30 C 1116.91 225.97 1116.65 230.65 1116.64 235.33 C 1117.67 235.56 1118.72 235.79 1119.78 236.02 C 1121.29 236.31 1122.81 236.62 1124.36 236.86 C 1124.78 238.40 1125.23 239.94 1125.72 241.46 L 1124.66 241.54 C 1124.01 240.15 1123.43 238.73 1122.82 237.33 C 1116.75 237.33 1110.91 241.44 1109.43 247.42 C 1108.31 252.29 1106.41 257.35 1107.52 262.39 C 1108.43 266.25 1111.85 268.49 1115.06 270.35 C 1111.26 270.83 1108.47 268.06 1107.21 264.76 C 1105.02 261.10 1106.05 256.77 1106.97 252.89 C 1107.73 249.95 1107.90 246.84 1109.10 244.02 C 1110.16 242.11 1111.45 240.34 1112.71 238.55 C 1110.97 238.18 1109.24 237.80 1107.53 237.43 C 1106.75 234.13 1105.83 230.86 1104.89 227.60 C 1106.24 221.33 1106.64 214.91 1107.36 208.55 Z"
     id="path3059"
     style="fill:#286090;fill-opacity:0.68627453" />
  <path
     fill="#dadada"
     d=" M 1107.95 208.44 C 1108.66 208.35 1110.08 208.18 1110.80 208.09 C 1110.61 210.64 1110.24 213.17 1109.80 215.69 C 1109.08 213.30 1108.37 210.90 1107.95 208.44 Z"
     id="path3061" />
  <path
     fill="#b6b6b6"
     d=" M 1119.51 210.66 C 1121.21 210.17 1122.95 209.81 1124.70 209.45 C 1123.91 211.03 1123.01 212.55 1122.19 214.11 C 1121.96 214.54 1121.49 215.40 1121.26 215.83 C 1120.54 215.49 1119.11 214.81 1118.39 214.47 C 1118.71 213.18 1119.07 211.91 1119.51 210.66 Z"
     id="path3063" />
  <path
     fill="#b6b6b6"
     d=" M 1130.44 211.16 C 1132.24 211.22 1134.04 211.31 1135.86 211.42 C 1135.68 219.00 1134.12 227.19 1138.21 234.11 C 1135.25 235.24 1132.11 236.37 1129.93 238.77 C 1128.44 240.91 1128.08 243.58 1127.27 246.00 C 1126.72 244.49 1126.20 242.98 1125.72 241.46 C 1125.23 239.94 1124.78 238.40 1124.36 236.86 C 1128.48 236.77 1131.85 234.27 1134.92 231.78 C 1133.92 225.46 1133.85 219.00 1135.01 212.70 C 1133.81 212.37 1132.60 212.11 1131.42 211.84 C 1129.22 216.96 1126.84 222.03 1123.69 226.65 C 1121.59 225.24 1119.60 223.70 1117.58 222.21 C 1117.89 226.87 1118.41 231.53 1119.78 236.02 C 1118.72 235.79 1117.67 235.56 1116.64 235.33 C 1116.65 230.65 1116.91 225.97 1117.18 221.30 C 1118.37 221.40 1119.58 221.51 1120.80 221.62 C 1121.16 222.30 1121.87 223.66 1122.22 224.35 L 1122.74 225.39 C 1126.08 221.10 1128.32 216.13 1130.44 211.16 Z"
     id="path3065"
     style="fill:#286090;fill-opacity:0.58823532" />
  <path
     fill="#ffffff"
     d=" M 1131.42 211.84 C 1132.60 212.11 1133.81 212.37 1135.01 212.70 C 1133.85 219.00 1133.92 225.46 1134.92 231.78 C 1131.85 234.27 1128.48 236.77 1124.36 236.86 C 1122.81 236.62 1121.29 236.31 1119.78 236.02 C 1118.41 231.53 1117.89 226.87 1117.58 222.21 C 1119.60 223.70 1121.59 225.24 1123.69 226.65 C 1126.84 222.03 1129.22 216.96 1131.42 211.84 Z"
     id="path3067"
     style="fill:none" />
  <path
     fill="#272627"
     d=" M 1121.26 215.83 C 1121.49 215.40 1121.96 214.54 1122.19 214.11 C 1122.08 217.52 1122.10 220.93 1122.22 224.35 C 1121.87 223.66 1121.16 222.30 1120.80 221.62 C 1120.64 219.68 1120.80 217.73 1121.26 215.83 Z"
     id="path3069" />
  <path
     fill="#dadada"
     d=" M 1103.31 235.36 C 1103.42 232.70 1104.18 230.15 1104.89 227.60 C 1105.83 230.86 1106.75 234.13 1107.53 237.43 C 1109.24 237.80 1110.97 238.18 1112.71 238.55 C 1111.45 240.34 1110.16 242.11 1109.10 244.02 C 1109.28 242.60 1109.51 241.18 1109.74 239.77 C 1108.65 239.75 1107.56 239.72 1106.50 239.66 C 1106.11 238.44 1105.74 237.22 1105.39 236.00 C 1104.87 235.84 1103.83 235.52 1103.31 235.36 Z"
     id="path3071"
     style="fill:#286090;fill-opacity:0.58823532" />
  <path
     fill="#888888"
     d=" M 532.86 240.87 C 538.25 234.57 547.10 232.74 555.05 233.10 C 560.85 233.22 566.57 234.43 572.10 236.17 C 571.42 240.68 570.72 245.20 569.67 249.64 C 569.26 251.12 568.85 253.08 566.95 253.17 C 562.74 253.17 558.40 251.70 554.27 253.09 C 551.47 255.57 552.48 259.80 552.17 263.11 C 556.04 263.31 559.93 263.10 563.81 263.36 C 565.32 263.25 566.84 264.56 566.89 266.09 C 567.15 270.69 567.15 275.32 566.90 279.92 C 566.90 281.47 565.49 282.92 563.93 282.89 C 560.04 283.17 556.14 282.95 552.25 283.07 C 552.27 301.06 552.25 319.05 552.28 337.05 C 552.25 338.81 552.21 341.72 549.86 341.86 C 543.60 342.15 537.32 342.10 531.07 341.90 C 528.93 341.99 528.07 339.76 528.27 337.98 C 528.18 319.67 528.38 301.37 528.19 283.06 C 524.76 282.51 520.15 284.36 517.65 281.31 C 516.86 276.08 517.12 270.68 517.46 265.42 C 519.60 261.72 524.68 263.77 528.14 263.15 C 528.51 255.64 527.72 247.05 532.86 240.87 Z"
     id="path3073" />
  <path
     fill="#272627"
     d=" M 1138.21 234.11 C 1139.23 235.48 1140.32 236.82 1141.39 238.17 C 1140.39 238.64 1139.42 239.12 1138.45 239.59 C 1138.09 241.06 1137.75 242.54 1137.41 244.02 C 1135.83 242.38 1134.34 240.68 1132.80 239.01 C 1126.66 246.14 1126.65 256.18 1126.93 265.06 C 1126.77 267.32 1127.34 270.10 1125.52 271.84 C 1124.14 271.79 1122.80 272.23 1121.44 272.19 C 1121.34 261.98 1119.42 250.89 1124.66 241.54 C 1122.83 251.11 1120.69 260.98 1122.36 270.73 C 1123.38 270.68 1124.41 270.64 1125.46 270.59 C 1125.71 266.05 1126.39 261.53 1126.32 256.98 C 1126.37 253.31 1126.06 249.54 1127.27 246.00 C 1128.08 243.58 1128.44 240.91 1129.93 238.77 C 1132.11 236.37 1135.25 235.24 1138.21 234.11 Z"
     id="path3075"
     style="fill:#286090;fill-opacity:0.68627453" />
  <path
     fill="#888888"
     d=" M 438.75 235.70 C 440.92 234.39 443.57 234.80 445.99 234.69 C 450.59 234.84 455.22 234.41 459.80 234.97 C 462.23 235.32 461.98 238.11 462.03 239.95 C 461.95 268.30 462.01 296.65 461.99 325.00 C 461.96 330.52 462.28 336.06 461.55 341.55 C 454.76 342.29 447.89 342.09 441.07 341.90 C 438.92 342.00 438.07 339.76 438.27 337.98 C 438.22 306.99 438.31 275.99 438.23 245.00 C 438.29 241.91 437.92 238.73 438.75 235.70 Z"
     id="path3077" />
  <path
     fill="#888888"
     d=" M 483.48 235.33 C 487.15 234.13 491.18 234.94 494.99 234.70 C 498.38 234.94 502.11 234.03 505.23 235.71 C 506.86 241.57 505.75 247.92 505.94 253.97 C 506.34 257.30 502.38 257.39 500.05 257.30 C 494.52 257.05 488.87 257.84 483.41 256.80 C 480.68 254.11 482.50 249.49 481.96 246.00 C 482.47 242.56 480.72 237.94 483.48 235.33 Z"
     id="path3079" />
  <path
     fill="#888888"
     d=" M 631.29 235.09 C 637.76 234.40 644.36 234.63 650.86 234.94 C 653.37 235.12 653.52 238.04 653.50 239.98 C 653.40 245.25 653.87 250.57 653.14 255.80 C 651.74 257.80 649.09 257.10 647.03 257.30 C 641.78 257.12 636.49 257.68 631.29 256.91 C 629.24 255.68 629.93 253.02 629.70 251.03 C 629.83 246.12 629.34 241.16 630.09 236.29 C 630.39 235.99 630.99 235.39 631.29 235.09 Z"
     id="path3081" />
  <path
     fill="#272627"
     d=" M 1034.49 235.33 C 1035.70 234.31 1037.47 234.91 1038.94 234.72 C 1043.95 234.81 1048.96 234.63 1053.97 234.79 C 1056.04 234.82 1057.34 237.01 1057.01 238.95 C 1056.97 272.29 1057.04 305.64 1056.97 338.98 C 1057.13 340.68 1055.67 342.14 1053.98 341.97 C 1048.62 342.08 1043.26 341.95 1037.92 342.03 C 1036.50 341.95 1034.93 342.19 1033.77 341.22 C 1032.79 340.06 1033.03 338.47 1032.97 337.08 C 1033.03 304.37 1033.00 271.66 1032.99 238.95 C 1032.93 237.57 1033.08 236.01 1034.49 235.33 Z"
     id="path3083"
     style="fill:#1a1a1a" />
  <path
     fill="#888888"
     d=" M 578.86 249.19 C 585.90 245.09 592.87 240.88 600.02 236.99 C 600.83 238.06 602.65 238.61 602.68 240.11 C 602.95 247.80 602.53 255.50 602.83 263.18 C 606.68 263.33 610.58 262.95 614.41 263.57 C 615.57 264.32 616.30 265.57 616.20 266.98 C 616.37 271.29 616.43 275.63 616.15 279.94 C 616.18 281.33 615.27 282.84 613.81 283.03 C 610.19 283.52 606.52 283.21 602.89 283.26 C 602.54 292.83 602.85 302.42 602.71 311.99 C 602.76 315.20 602.45 318.48 603.24 321.63 C 606.43 325.56 611.76 320.07 615.47 322.53 C 617.36 328.11 616.99 334.19 617.98 339.97 C 610.99 343.30 603.04 344.45 595.39 343.42 C 590.12 342.54 584.47 340.24 581.74 335.35 C 579.17 330.68 578.93 325.19 578.75 319.98 C 578.69 307.78 578.79 295.58 578.73 283.38 C 575.90 282.91 572.12 284.21 570.09 281.71 C 569.43 275.72 569.36 269.55 570.43 263.60 C 573.19 263.35 575.97 263.18 578.74 262.99 C 578.72 258.38 578.70 253.78 578.86 249.19 Z"
     id="path3085" />
  <path
     fill="#ffffff"
     d=" M 1124.66 241.54 L 1125.72 241.46 C 1126.20 242.98 1126.72 244.49 1127.27 246.00 C 1126.06 249.54 1126.37 253.31 1126.32 256.98 C 1126.39 261.53 1125.71 266.05 1125.46 270.59 C 1124.41 270.64 1123.38 270.68 1122.36 270.73 C 1120.69 260.98 1122.83 251.11 1124.66 241.54 Z"
     id="path3087"
     style="fill:none" />
  <path
     fill="#b6b6b6"
     d=" M 243.49 269.64 C 251.84 262.22 264.08 259.37 274.67 263.27 C 279.17 264.78 282.56 268.22 285.76 271.56 C 290.35 267.63 295.28 263.66 301.34 262.36 C 308.78 260.76 317.00 261.43 323.62 265.40 C 328.96 268.55 332.63 274.17 333.83 280.21 C 334.97 285.73 334.71 291.40 334.72 297.00 C 334.64 310.98 334.80 324.98 334.69 338.96 C 335.10 341.59 331.98 342.02 330.07 341.99 C 324.16 341.97 318.20 342.36 312.32 341.71 C 310.29 340.59 310.95 337.94 310.69 336.04 C 310.75 323.36 310.69 310.68 310.76 298.00 C 310.70 293.55 311.02 288.88 309.33 284.66 C 306.49 279.01 298.06 280.24 294.31 284.30 C 290.61 288.18 290.34 293.91 289.92 298.96 C 289.38 312.28 289.93 325.63 289.68 338.96 C 290.08 341.11 287.77 341.98 286.02 341.92 C 279.50 342.16 272.95 342.22 266.45 341.55 C 265.24 324.46 266.72 307.29 265.66 290.19 C 265.36 286.97 264.84 282.88 261.44 281.47 C 256.40 279.66 250.13 281.73 247.41 286.42 C 244.83 290.81 244.91 296.09 244.71 301.02 C 244.68 313.04 244.70 325.06 244.77 337.08 C 244.70 338.80 245.03 341.37 242.71 341.68 C 236.23 342.34 229.65 342.09 223.15 341.85 C 220.67 341.76 220.82 338.82 220.73 337.04 C 220.68 315.02 220.81 293.00 220.67 270.98 C 220.67 268.48 221.02 266.00 221.43 263.54 C 227.81 263.24 234.24 262.93 240.62 263.50 C 243.47 263.91 242.86 267.57 243.49 269.64 Z"
     id="path3089" />
  <path
     fill="#888888"
     d=" M 696.26 270.10 C 701.84 265.43 708.59 261.91 716.00 261.63 C 724.58 261.07 734.04 263.44 739.81 270.20 C 744.45 275.64 745.43 283.11 745.49 290.02 C 745.47 305.69 745.47 321.37 745.50 337.04 C 745.50 338.92 745.45 341.88 742.90 341.90 C 736.66 342.10 730.39 342.15 724.15 341.86 C 721.78 341.73 721.73 338.82 721.72 337.05 C 721.72 325.03 721.76 313.01 721.74 300.99 C 721.60 296.45 721.72 291.83 720.64 287.38 C 719.71 283.53 715.91 280.79 711.99 280.85 C 705.95 280.38 699.92 284.63 698.50 290.54 C 697.39 294.93 697.39 299.49 697.27 303.98 C 697.22 315.00 697.29 326.02 697.28 337.05 C 697.25 338.82 697.21 341.73 694.85 341.86 C 688.61 342.15 682.34 342.10 676.10 341.90 C 673.53 341.88 673.48 338.92 673.50 337.03 C 673.53 314.01 673.53 290.98 673.50 267.96 C 673.35 266.11 673.85 263.36 676.20 263.34 C 681.99 263.20 687.81 263.01 693.59 263.46 C 696.52 264.12 695.79 267.87 696.26 270.10 Z"
     id="path3091" />
  <path
     d="M 993.03125 326.90625 C 988.9875 326.9125 984.9375 327.525 981.0625 328.625 C 969 332.1875 959.25 342.01875 954.9375 353.71875 C 951.3 363.65625 950.75 374.475 951.5 384.9375 C 952.5375 397.3125 957.41875 409.75 966.78125 418.1875 C 976.18125 426.8625 990.21875 429.55 1002.4062 426.1875 C 1008.1063 424.6125 1012.9125 421.0375 1017.5 417.4375 C 1017.0875 424.3625 1019.275 433.25 1013.3125 438.375 C 1007.4 442.075 999.75 441.75625 993.125 440.65625 C 988.9125 440.01875 988.53125 435.14375 986.40625 432.28125 C 977.28125 430.76875 968.025 429.85 958.8125 428.875 C 956.4875 428.2 954.35625 430.2625 954.40625 432.5625 C 953.74375 440.9875 957.1625 449.625 963.5 455.25 C 971.2375 462.5 982.2625 464.56875 992.5 465.21875 C 1005.575 465.71875 1019.625 465.7375 1031.1875 458.6875 C 1039.4 453.9625 1044.1625 445.0125 1045.875 435.9375 C 1048 424.5125 1047.4125 412.8125 1047.5 401.25 C 1047.4625 378.7375 1047.5687 356.25 1047.4688 333.75 C 1047.7562 331.4375 1045.9 329.05 1043.5 329.1875 C 1036.5875 328.9125 1029.6625 328.925 1022.75 329.1875 C 1019.225 329.4375 1019.2563 333.8625 1018.3438 336.375 C 1014.1062 333.475 1009.85 330.40625 1004.9375 328.78125 C 1001.0875 327.49375 997.075 326.9 993.03125 326.90625 z M 999.71875 351 C 1003.8084 351.03605 1007.8789 352.4875 1010.8438 355.375 C 1016.6563 360.5625 1017.7812 368.8875 1017.9688 376.25 C 1018.0938 384 1016.675 392.64375 1010.5625 398.03125 C 1004.6375 403.78125 994.0875 404.10625 988.3125 397.96875 C 981.5 391.13125 981.31875 380.55625 981.84375 371.53125 C 982.34375 363.53125 986.05 354.55625 994.25 351.84375 C 996.01172 351.27344 997.85983 350.98361 999.71875 351 z "
     transform="scale(0.8,0.8)"
     id="path3093"
     style="fill:#888888;fill-opacity:1" />
  <path
     d="M 1125.7812 326.875 C 1115.943 326.76853 1106.2766 330.77969 1099.1562 337.59375 C 1099.1562 334.63125 1099.2313 331.525 1097.3438 329.0625 C 1089.1063 329.025 1080.8812 329.025 1072.6562 329.0625 C 1071.5562 330.825 1070.6437 332.76875 1070.9062 334.90625 C 1070.9812 376.18125 1070.8625 417.45625 1070.9375 458.71875 C 1070.5625 461.10625 1072.4938 463.49375 1075.0312 463.09375 C 1082.9813 463.23125 1090.9625 463.075 1098.9375 463.125 C 1099.7 461.7125 1100.7625 460.3375 1100.625 458.625 C 1100.725 445.7875 1100.5625 432.93125 1100.6875 420.09375 C 1106.925 425.15625 1114.275 429.33125 1122.5 429.65625 C 1135.3125 430.84375 1148.1687 424.825 1156.0312 414.75 C 1163.9938 405.0625 1166.8188 392.25625 1167.0938 379.96875 C 1167.2438 369.43125 1165.9313 358.5125 1160.9688 349.0625 C 1154.9563 337.4125 1143.275 328.3625 1130 327.1875 C 1128.5953 327 1127.1867 326.89021 1125.7812 326.875 z M 1118.4062 351.625 C 1125.0831 351.42454 1131.4516 356.02969 1134 362.1875 C 1136.975 369.375 1137.1 377.4125 1136.375 385.0625 C 1135.7 390.7875 1134.2 396.9625 1129.625 400.875 C 1124.625 405.8625 1116.075 406.18125 1110.375 402.21875 C 1105.35 398.90625 1102.4438 393.20625 1101.4062 387.40625 C 1100.0188 379.59375 1099.7813 371.28125 1102.4688 363.71875 C 1104.4563 357.94375 1109.4375 353.0875 1115.5625 352 C 1116.5187 351.76562 1117.4524 351.65364 1118.4062 351.625 z "
     transform="scale(0.8,0.8)"
     id="path3095"
     style="fill:#1a1a1a" />
  <path
     d="M 1225.4062 326.875 C 1217.4785 326.83777 1209.5781 327.82031 1202.1875 330.75 C 1191.7625 334.95 1184.9563 345.125 1182.3438 355.75 C 1182.8188 356.45 1183.775 357.83125 1184.25 358.53125 C 1192.425 360.24375 1200.7 361.5125 1208.9375 363.0625 C 1210.8 358.9 1212.375 353.5875 1217.1875 352 C 1222.55 350.35 1228.5 350.7375 1233.75 352.625 C 1237.525 354.2 1237.5875 358.81875 1238 362.28125 C 1225.7125 366.48125 1212.575 367.33125 1200.3125 371.59375 C 1194.275 373.63125 1188.6 377.15625 1184.9375 382.46875 C 1176.9125 394.05625 1178.275 411.5625 1188.8125 421.1875 C 1196.9375 428.8875 1208.9687 430.74375 1219.7188 429.28125 C 1227.5687 428.29375 1234.775 424.53125 1241 419.78125 C 1241.9125 422.34375 1242.7125 424.9625 1243.75 427.5 C 1252.075 427.45 1260.3938 427.58125 1268.7188 427.46875 C 1270.4688 427.63125 1271.2687 425.65625 1272.5312 424.78125 C 1264.7938 409.26875 1267.6187 391.65 1267.2188 375 C 1267.0312 364.6875 1268.1312 353.9875 1264.6562 344.0625 C 1260.4562 334.2625 1249.6938 329.06875 1239.5938 327.84375 C 1234.925 327.3 1230.1629 326.89734 1225.4062 326.875 z M 1237.8125 383.8125 C 1237.6 389.75 1238.6 396.8125 1234 401.4375 C 1228.65 406.8625 1218.5 409.85625 1212.5625 403.71875 C 1208.4625 400.10625 1208.75 392.55625 1214 390.15625 C 1221.5125 386.74375 1229.9 385.975 1237.8125 383.8125 z "
     transform="scale(0.8,0.8)"
     id="path3097"
     style="fill:#1a1a1a" />
  <path
     fill="#b6b6b6"
     d=" M 346.28 263.41 C 354.01 263.20 361.74 263.13 369.47 263.46 C 374.97 279.27 380.14 295.19 385.55 311.04 C 388.66 304.23 390.50 296.95 392.91 289.89 C 395.87 281.11 398.69 272.29 401.62 263.50 C 408.07 263.13 414.55 263.25 421.01 263.25 C 422.31 263.37 424.01 263.12 424.76 264.51 C 425.90 265.97 424.81 267.85 424.46 269.40 C 415.99 292.31 407.63 315.25 399.20 338.17 C 396.13 346.23 393.86 354.77 388.98 361.99 C 385.16 367.73 378.49 370.89 371.82 371.83 C 365.09 372.69 358.15 372.55 351.58 370.73 C 351.00 364.92 349.61 359.12 350.07 353.27 C 350.37 352.99 350.99 352.44 351.29 352.16 C 356.76 351.55 363.32 354.08 367.88 349.91 C 370.89 346.56 374.12 341.70 371.94 337.10 C 363.32 314.66 354.92 292.13 346.26 269.71 C 345.34 267.69 345.11 265.38 346.28 263.41 Z"
     id="path3099" />
  <path
     fill="#888888"
     d=" M 482.03 266.98 C 481.79 265.14 483.27 263.24 485.19 263.35 C 491.07 263.13 496.97 263.17 502.85 263.33 C 504.90 263.06 506.20 265.10 505.98 266.96 C 506.03 284.97 505.97 302.99 505.99 321.00 C 505.86 327.85 506.41 334.73 505.55 341.55 C 497.88 342.28 490.11 342.28 482.44 341.55 C 481.99 338.05 481.92 334.52 481.98 331.00 C 482.08 309.66 481.94 288.32 482.03 266.98 Z"
     id="path3101" />
  <path
     fill="#888888"
     d=" M 631.45 263.55 C 637.86 262.91 644.37 263.27 650.81 263.33 C 653.12 263.38 653.64 266.11 653.50 267.95 C 653.47 290.98 653.47 314.01 653.50 337.04 C 653.50 338.92 653.46 341.89 650.90 341.90 C 644.65 342.10 638.38 342.15 632.15 341.86 C 629.77 341.73 629.74 338.82 629.72 337.05 C 629.76 314.01 629.73 290.97 629.73 267.94 C 629.94 266.51 629.64 263.89 631.45 263.55 Z"
     id="path3103" />
  <path
     style="fill:#286090;fill-opacity:0;stroke:#286090;stroke-width:5.31611538000000030;stroke-linecap:butt;stroke-linejoin:miter;stroke-miterlimit:4;stroke-opacity:0.68627453;stroke-dasharray:none;marker-start:none"
     d="m 1135.4518,212.45253 c -4.1694,-1.0852 -8.4959,-2.03035 -12.8068,-2.91831 -5.1012,-1.04957 -10.1804,-2.01917 -14.9531,-3.04301"
     id="path3839"
     inkscape:connector-curvature="0"
     sodipodi:nodetypes="csc" />
</svg>
