<?xml version="1.0" encoding="UTF-8" standalone="no"?>
<svg
   xmlns:dc="http://purl.org/dc/elements/1.1/"
   xmlns:cc="http://creativecommons.org/ns#"
   xmlns:rdf="http://www.w3.org/1999/02/22-rdf-syntax-ns#"
   xmlns:svg="http://www.w3.org/2000/svg"
   xmlns="http://www.w3.org/2000/svg"
   xmlns:sodipodi="http://sodipodi.sourceforge.net/DTD/sodipodi-0.dtd"
   xmlns:inkscape="http://www.inkscape.org/namespaces/inkscape"
   width="1400pt"
   height="600pt"
   viewBox="0 0 1400 600"
   version="1.1"
   id="svg3051"
   inkscape:version="0.48.4 r9939"
   sodipodi:docname="header.svg">
  <metadata
     id="metadata3115">
    <rdf:RDF>
      <cc:Work
         rdf:about="">
        <dc:format>image/svg+xml</dc:format>
        <dc:type
           rdf:resource="http://purl.org/dc/dcmitype/StillImage" />
      </cc:Work>
    </rdf:RDF>
  </metadata>
  <defs
     id="defs3113" />
  <sodipodi:namedview
     pagecolor="#ffffff"
     bordercolor="#666666"
     borderopacity="1"
     objecttolerance="10"
     gridtolerance="10"
     guidetolerance="10"
     inkscape:pageopacity="0"
     inkscape:pageshadow="2"
     inkscape:window-width="1680"
     inkscape:window-height="998"
     id="namedview3111"
     showgrid="false"
     inkscape:zoom="0.69257143"
     inkscape:cx="1038.5125"
     inkscape:cy="451.43162"
     inkscape:window-x="-8"
     inkscape:window-y="22"
     inkscape:window-maximized="1"
     inkscape:current-layer="svg3051" />
  <path
     fill="rgba(0,0,0,0)"
     d=" M 0.00 0.00 L 1400.00 0.00 L 1400.00 600.00 L 0.00 600.00 L 0.00 0.00 Z"
     id="path3053"
     style="fill:none" />
  <path
     style="fill:#1a1a1a"
     d="m 1094.0712,221.80153 c -1.429,-0.017 -2.8578,0.0832 -4.2647,0.3051 -3.0281,0.8099 -5.7789,2.5323 -7.7482,5.00637 -3.6423,4.64856 -6.0942,10.67561 -5.1013,16.68324 0.5594,3.50583 2.6795,6.43476 4.6213,9.29158 3.4504,5.01468 10.2357,7.38612 15.9625,5.28372 l 0.028,-0.54085 c 0.06,-1.47556 0.4882,-2.88455 0.8777,-4.29908 0.7405,-3.47811 0.9489,-7.03942 1.3439,-10.56745 l 0.3291,-0.0554 c 0.3895,-0.0499 1.1685,-0.14423 1.5634,-0.19415 -0.1042,1.41454 -0.3072,2.81799 -0.5486,4.21589 -0.082,3.15082 -0.1535,6.30718 -0.1371,9.458 0.9765,-0.20524 2.4272,0.26627 2.9484,-0.88756 1.3055,-3.63342 -0.3538,-8.34856 2.5095,-11.37179 0.9325,-0.27181 1.8925,-0.46596 2.8525,-0.66566 -0.4334,0.87646 -0.9215,1.71409 -1.3714,2.57945 -0.06,1.8916 -0.052,3.78875 0.013,5.68589 l 0.288,0.58246 c 1.8321,-2.37975 3.0608,-5.14781 4.2237,-7.90478 0.9873,0.0333 1.9637,0.0915 2.9622,0.15255 -0.099,4.20479 -0.9546,8.73963 1.289,12.57831 0.5595,0.75997 1.1683,1.51161 1.7553,2.26049 -0.5485,0.26072 -1.0861,0.52975 -1.6182,0.79047 -0.1974,0.81545 -0.3894,1.63366 -0.576,2.45465 -0.8666,-0.90974 -1.6785,-1.86109 -2.5232,-2.78748 -3.3681,3.95517 -3.3763,9.52457 -3.2227,14.4505 -0.088,1.25367 0.2304,2.80689 -0.768,3.7721 -0.7569,-0.0278 -1.4892,0.21635 -2.2353,0.19415 -0.055,-5.6637 -1.119,-11.81556 1.7554,-17.00221 -0.3565,-0.77106 -0.6664,-1.56708 -1.0011,-2.34369 -3.3296,0 -6.5385,2.28545 -7.3504,5.60268 -0.6144,2.7015 -1.6512,5.51116 -1.0422,8.30695 0.4992,2.14123 2.367,3.37826 4.1277,4.41004 0.9709,0.32174 1.2068,1.73905 0.2469,2.23276 -2.1119,1.5865 -4.9698,2.24938 -6.4179,4.67352 -2.2654,2.65712 -1.8102,6.29609 -1.8102,9.54122 -0.181,3.84976 1.5058,7.42216 2.6467,11.01121 0.9544,2.92338 3.0005,5.76356 2.2764,8.98648 -0.7625,1.96927 -2.9621,2.45187 -4.6899,3.18965 -5.4964,2.23553 -10.628,5.32534 -15.2906,9.01423 -1.9363,1.32579 -1.8485,3.98013 -2.0295,6.08807 -0.4334,3.82203 1.4042,7.35837 1.7553,11.10829 0.2029,2.04692 1.0532,3.98568 1.0697,6.06034 0.055,3.69999 0.074,7.4083 -0.069,11.10829 -2.7866,1.81948 -6.1574,2.60442 -8.7355,4.75674 -0.1207,0.67122 -0.082,1.35628 -0.1097,2.0386 3.1485,1.04842 6.4837,0.58246 9.7365,0.66567 2.8634,-0.1054 5.7953,0.29954 8.5984,-0.49925 0.7679,-4.21034 -1.9666,-7.83544 -2.3451,-11.91265 -0.3785,-2.23552 -1.215,-4.41004 -1.0834,-6.71213 -0.2468,-2.70149 1.5935,-5.03132 1.3302,-7.73836 0.2249,-2.52953 -1.1821,-4.87323 -0.809,-7.39166 2.5014,-0.061 5.0191,-0.0666 7.4875,-0.55472 4.7613,-0.39941 9.1387,-2.52122 13.7957,-3.45314 0.8777,-0.33838 1.3741,0.50756 1.8788,1.06783 1.9857,2.28546 3.5599,4.88432 5.3756,7.30846 1.6567,2.57945 4.3801,4.10494 6.6785,6.01872 2.6823,2.2189 5.9543,3.45315 9.092,4.83995 4.5364,2.06356 9.4128,3.13418 14.1522,4.60419 2.6714,0.84873 5.4964,1.34797 7.9813,2.71814 0.8008,1.25921 1.6071,2.95111 1.0421,4.4655 -1.2342,1.45891 -2.6521,2.732 -3.9356,4.14654 0.1261,0.82099 -0.099,1.84445 0.7405,2.37143 1.8704,0.58802 4.1084,1.262 5.8967,0.0694 2.7975,-1.68635 5.4141,-3.70277 7.9264,-5.8107 0.6911,-0.7156 1.8129,-1.49498 1.4399,-2.6488 -0.8338,-1.8916 -2.0241,-3.60846 -3.3461,-5.17278 -1.6621,-1.6808 -4.2018,-1.66139 -6.2259,-2.6488 -2.8579,-1.33687 -5.6609,-2.7736 -8.4475,-4.24361 -1.9692,-1.02069 -3.2967,-2.89842 -5.0739,-4.17428 -3.2309,-1.32578 -7.0213,-0.97631 -10.1206,-2.55171 -2.6109,-4.00509 -3.9741,-8.72023 -6.6783,-12.67539 -3.2364,-4.53208 -3.3215,-10.69503 -7.2545,-14.81106 -1.4042,-1.30359 -3.3927,-2.15787 -3.9632,-4.16041 -2.1503,-4.37121 -0.7131,-9.25276 0.1097,-13.7571 0.7351,-2.27436 0.4691,-4.69016 1.0012,-7.00336 0.8447,-4.14931 1.1464,-8.57322 -0.028,-12.68925 -0.9763,-4.67075 -2.3724,-9.59668 -0.8639,-14.31181 0.8831,0.12758 1.9062,0.24408 2.3998,1.13718 3.0006,3.83867 7.249,6.76205 12.0267,7.73836 4.147,0.96522 8.5902,0.0278 12.205,-2.19115 4.6187,-2.95111 7.8275,-7.9131 8.9137,-13.29944 0.2523,-3.15082 0.2852,-6.33492 -0.028,-9.48573 -0.5705,-2.23554 -1.4783,-4.38231 -2.6193,-6.37931 -2.2819,-3.86641 -6.4398,-6.29608 -10.7239,-7.15591 -2.9018,-0.18305 -5.8364,-0.26626 -8.7217,0.11095 -3.0719,0.9042 -6.1135,2.18005 -8.5709,4.29909 -2.3807,2.03583 -3.9522,4.80111 -5.6911,7.36393 -1.3549,0.0999 -2.5425,-0.47151 -3.4969,-1.3868 0.34,-5.88005 -1.6429,-12.11789 -6.3768,-15.79569 -3.6244,-2.36312 -7.904,-3.51312 -12.1912,-3.56409 z m 12.2599,14.46436 c 0.1424,-6.1e-4 0.2934,0.0107 0.4388,0.0277 1.9747,0.47152 2.9429,2.36312 3.497,4.16041 -0.1317,0.77661 -0.5595,1.0928 -1.2891,0.94303 -1.2123,-0.88755 -2.26,-2.25217 -3.8397,-2.41304 -1.0258,0.7045 -2.0159,1.55323 -3.3325,1.19266 0.612,-1.97621 2.3885,-3.90155 4.5255,-3.91079 z"
     id="path3055"
     inkscape:connector-curvature="0" />
  <path
     d="m 1099.7953,242.96416 0.3236,-0.061 c 0.2304,1.36461 0.6198,2.69594 1.0147,4.02173 -0.082,3.15081 -0.1481,6.30718 -0.1316,9.45799 0.9764,-0.20524 2.4246,0.27182 2.9457,-0.88201 1.3055,-3.63342 -0.351,-8.343 2.5123,-11.36623 -0.2414,0.6934 -0.4389,1.3979 -0.6144,2.11348 0.395,0.18861 1.1794,0.56583 1.5743,0.75442 -0.2523,1.05397 -0.3401,2.13568 -0.2523,3.21185 -0.6692,-0.061 -1.3329,-0.12205 -1.9857,-0.17752 -0.1481,2.59055 -0.2907,5.18665 -0.2962,7.78275 0.565,0.12758 1.141,0.25517 1.7224,0.38275 0.8283,0.16087 1.6621,0.33283 2.5123,0.46597 0.2304,0.85427 0.4772,1.70854 0.7461,2.55172 l -0.5815,0.0444 c -0.3566,-0.77106 -0.6748,-1.55876 -1.0094,-2.33538 -3.3296,0 -6.533,2.27991 -7.3449,5.59715 -0.6143,2.70148 -1.6566,5.50837 -1.0477,8.30418 0.4992,2.14122 2.3752,3.3838 4.136,4.41557 -2.0845,0.26627 -3.6149,-1.27031 -4.306,-3.10088 -1.2013,-2.03029 -0.6363,-4.43223 -0.1317,-6.58455 0.4169,-1.63089 0.5102,-3.35607 1.1684,-4.92038 0.5814,-1.05952 1.2891,-2.04137 1.9803,-3.03433 -0.9545,-0.20524 -1.9035,-0.41604 -2.8415,-0.62128 -0.4279,-1.83059 -0.9325,-3.64453 -1.4481,-5.45291 0.7405,-3.47811 0.9599,-7.03942 1.3549,-10.56745 z"
     id="path3059"
     inkscape:connector-curvature="0"
     style="fill:#888888" />
  <path
     d="m 1100.1189,242.90314 c 0.3894,-0.0499 1.1684,-0.14423 1.5633,-0.19416 -0.1042,1.41454 -0.3072,2.81799 -0.5486,4.21589 -0.3949,-1.32578 -0.7843,-2.65712 -1.0147,-4.02173 z"
     id="path3061"
     inkscape:connector-curvature="0"
     style="fill:#dadada" />
  <path
     d="m 1106.46,244.13462 c 0.9325,-0.27181 1.8869,-0.47151 2.8469,-0.67121 -0.4334,0.87645 -0.9271,1.71964 -1.3768,2.58499 -0.1262,0.23854 -0.3841,0.7156 -0.5102,0.95413 -0.3949,-0.1886 -1.1793,-0.56581 -1.5743,-0.75442 0.1755,-0.71559 0.373,-1.42009 0.6144,-2.11349 z"
     id="path3063"
     inkscape:connector-curvature="0"
     style="fill:#b6b6b6" />
  <path
     d="m 1112.4555,244.41199 c 0.9874,0.0333 1.9747,0.0832 2.9731,0.14422 -0.099,4.20479 -0.9545,8.74796 1.2891,12.58663 -1.6237,0.62684 -3.3461,1.25367 -4.5419,2.585 -0.8173,1.1871 -1.0148,2.66821 -1.4591,4.01063 -0.3017,-0.83763 -0.587,-1.67525 -0.8502,-2.51843 -0.2689,-0.84318 -0.5157,-1.69745 -0.7461,-2.55172 2.26,-0.0499 4.1085,-1.43672 5.7925,-2.81798 -0.5485,-3.50584 -0.5869,-7.08934 0.049,-10.58409 -0.6583,-0.18305 -1.322,-0.32728 -1.9693,-0.47706 -1.2067,2.84017 -2.5123,5.65261 -4.2401,8.21543 -1.1519,-0.78216 -2.2435,-1.63644 -3.3515,-2.46297 0.17,2.585 0.4552,5.17 1.2067,7.6607 -0.5814,-0.12758 -1.1574,-0.25517 -1.7224,-0.38275 0.01,-2.5961 0.1481,-5.1922 0.2962,-7.78274 0.6528,0.0554 1.3165,0.11649 1.9857,0.17751 0.1974,0.3772 0.5869,1.13163 0.7789,1.51438 l 0.2852,0.57692 c 1.8321,-2.37976 3.061,-5.13672 4.2238,-7.89368 z"
     id="path3065"
     inkscape:connector-curvature="0"
     style="fill:#b6b6b6" />
  <path
     d="m 1112.993,244.78919 c 0.6473,0.14978 1.311,0.29401 1.9693,0.47706 -0.6363,3.49475 -0.5979,7.07825 -0.049,10.58409 -1.6841,1.38126 -3.5326,2.76805 -5.7926,2.81798 -0.8502,-0.13313 -1.684,-0.3051 -2.5124,-0.46597 -0.7514,-2.4907 -1.0367,-5.0757 -1.2067,-7.6607 1.108,0.82653 2.1997,1.68081 3.3516,2.46297 1.7279,-2.56282 3.0334,-5.37526 4.2401,-8.21543 z"
     id="path3067"
     style="fill:none"
     inkscape:connector-curvature="0" />
  <path
     d="m 1107.4199,247.00253 c 0.1261,-0.23853 0.384,-0.71559 0.5102,-0.95413 -0.06,1.89161 -0.049,3.78321 0.017,5.68035 -0.192,-0.38275 -0.5814,-1.13718 -0.7789,-1.51438 -0.088,-1.07617 0,-2.15787 0.2524,-3.21184 z"
     id="path3069"
     inkscape:connector-curvature="0"
     style="fill:#272627" />
  <path
     d="m 1097.5737,257.83623 c 0.06,-1.47555 0.4772,-2.89009 0.8667,-4.30462 0.5156,1.80838 1.0202,3.62232 1.4481,5.4529 0.938,0.20525 1.887,0.41604 2.8415,0.62129 -0.6912,0.99295 -1.3989,1.97481 -1.9803,3.03433 0.099,-0.78771 0.2249,-1.57541 0.351,-2.35757 -0.5978,-0.0111 -1.1957,-0.0277 -1.7772,-0.061 -0.2139,-0.67676 -0.4168,-1.35352 -0.6088,-2.03028 -0.2853,-0.0888 -0.8557,-0.26627 -1.141,-0.35503 z"
     id="path3071"
     inkscape:connector-curvature="0"
     style="fill:#dadada" />
  <path
     fill="#888888"
     d=" M 532.86 240.87 C 538.25 234.57 547.10 232.74 555.05 233.10 C 560.85 233.22 566.57 234.43 572.10 236.17 C 571.42 240.68 570.72 245.20 569.67 249.64 C 569.26 251.12 568.85 253.08 566.95 253.17 C 562.74 253.17 558.40 251.70 554.27 253.09 C 551.47 255.57 552.48 259.80 552.17 263.11 C 556.04 263.31 559.93 263.10 563.81 263.36 C 565.32 263.25 566.84 264.56 566.89 266.09 C 567.15 270.69 567.15 275.32 566.90 279.92 C 566.90 281.47 565.49 282.92 563.93 282.89 C 560.04 283.17 556.14 282.95 552.25 283.07 C 552.27 301.06 552.25 319.05 552.28 337.05 C 552.25 338.81 552.21 341.72 549.86 341.86 C 543.60 342.15 537.32 342.10 531.07 341.90 C 528.93 341.99 528.07 339.76 528.27 337.98 C 528.18 319.67 528.38 301.37 528.19 283.06 C 524.76 282.51 520.15 284.36 517.65 281.31 C 516.86 276.08 517.12 270.68 517.46 265.42 C 519.60 261.72 524.68 263.77 528.14 263.15 C 528.51 255.64 527.72 247.05 532.86 240.87 Z"
     id="path3073" />
  <path
     d="m 1116.7177,257.14284 c 0.5595,0.75996 1.1574,1.50329 1.7443,2.25216 -0.5486,0.26073 -1.0806,0.52699 -1.6127,0.78771 -0.1974,0.81545 -0.384,1.63643 -0.5704,2.45742 -0.8668,-0.90974 -1.6841,-1.85277 -2.5288,-2.77916 -3.3681,3.95517 -3.3735,9.52458 -3.22,14.45049 -0.088,1.25367 0.225,2.79581 -0.7734,3.76101 -0.757,-0.0278 -1.4921,0.21634 -2.238,0.19416 -0.055,-5.66371 -1.1081,-11.81557 1.7663,-17.00221 -1.0039,5.30869 -2.1777,10.78378 -1.2617,16.19231 0.5595,-0.0277 1.1245,-0.0499 1.7005,-0.0777 0.1372,-2.51843 0.5101,-5.02577 0.4718,-7.54975 0.028,-2.03583 -0.1427,-4.12713 0.5211,-6.09084 0.4443,-1.34243 0.6418,-2.82354 1.4591,-4.01064 1.1958,-1.33133 2.9182,-1.95816 4.5419,-2.585 z"
     id="path3075"
     inkscape:connector-curvature="0"
     style="fill:#272627" />
  <path
     fill="#888888"
     d=" M 438.75 235.70 C 440.92 234.39 443.57 234.80 445.99 234.69 C 450.59 234.84 455.22 234.41 459.80 234.97 C 462.23 235.32 461.98 238.11 462.03 239.95 C 461.95 268.30 462.01 296.65 461.99 325.00 C 461.96 330.52 462.28 336.06 461.55 341.55 C 454.76 342.29 447.89 342.09 441.07 341.90 C 438.92 342.00 438.07 339.76 438.27 337.98 C 438.22 306.99 438.31 275.99 438.23 245.00 C 438.29 241.91 437.92 238.73 438.75 235.70 Z"
     id="path3077" />
  <path
     fill="#888888"
     d=" M 483.48 235.33 C 487.15 234.13 491.18 234.94 494.99 234.70 C 498.38 234.94 502.11 234.03 505.23 235.71 C 506.86 241.57 505.75 247.92 505.94 253.97 C 506.34 257.30 502.38 257.39 500.05 257.30 C 494.52 257.05 488.87 257.84 483.41 256.80 C 480.68 254.11 482.50 249.49 481.96 246.00 C 482.47 242.56 480.72 237.94 483.48 235.33 Z"
     id="path3079" />
  <path
     fill="#888888"
     d=" M 631.29 235.09 C 637.76 234.40 644.36 234.63 650.86 234.94 C 653.37 235.12 653.52 238.04 653.50 239.98 C 653.40 245.25 653.87 250.57 653.14 255.80 C 651.74 257.80 649.09 257.10 647.03 257.30 C 641.78 257.12 636.49 257.68 631.29 256.91 C 629.24 255.68 629.93 253.02 629.70 251.03 C 629.83 246.12 629.34 241.16 630.09 236.29 C 630.39 235.99 630.99 235.39 631.29 235.09 Z"
     id="path3081" />
  <path
     fill="#272627"
     d=" M 1034.49 235.33 C 1035.70 234.31 1037.47 234.91 1038.94 234.72 C 1043.95 234.81 1048.96 234.63 1053.97 234.79 C 1056.04 234.82 1057.34 237.01 1057.01 238.95 C 1056.97 272.29 1057.04 305.64 1056.97 338.98 C 1057.13 340.68 1055.67 342.14 1053.98 341.97 C 1048.62 342.08 1043.26 341.95 1037.92 342.03 C 1036.50 341.95 1034.93 342.19 1033.77 341.22 C 1032.79 340.06 1033.03 338.47 1032.97 337.08 C 1033.03 304.37 1033.00 271.66 1032.99 238.95 C 1032.93 237.57 1033.08 236.01 1034.49 235.33 Z"
     id="path3083"
     style="fill:#1a1a1a" />
  <path
     fill="#888888"
     d=" M 578.86 249.19 C 585.90 245.09 592.87 240.88 600.02 236.99 C 600.83 238.06 602.65 238.61 602.68 240.11 C 602.95 247.80 602.53 255.50 602.83 263.18 C 606.68 263.33 610.58 262.95 614.41 263.57 C 615.57 264.32 616.30 265.57 616.20 266.98 C 616.37 271.29 616.43 275.63 616.15 279.94 C 616.18 281.33 615.27 282.84 613.81 283.03 C 610.19 283.52 606.52 283.21 602.89 283.26 C 602.54 292.83 602.85 302.42 602.71 311.99 C 602.76 315.20 602.45 318.48 603.24 321.63 C 606.43 325.56 611.76 320.07 615.47 322.53 C 617.36 328.11 616.99 334.19 617.98 339.97 C 610.99 343.30 603.04 344.45 595.39 343.42 C 590.12 342.54 584.47 340.24 581.74 335.35 C 579.17 330.68 578.93 325.19 578.75 319.98 C 578.69 307.78 578.79 295.58 578.73 283.38 C 575.90 282.91 572.12 284.21 570.09 281.71 C 569.43 275.72 569.36 269.55 570.43 263.60 C 573.19 263.35 575.97 263.18 578.74 262.99 C 578.72 258.38 578.70 253.78 578.86 249.19 Z"
     id="path3085" />
  <path
     d="m 1109.285,261.26442 0.5815,-0.0444 c 0.2632,0.84318 0.5485,1.68081 0.8502,2.51844 -0.6638,1.96371 -0.4937,4.05501 -0.5211,6.09084 0.038,2.52398 -0.3346,5.03132 -0.4718,7.54975 -0.576,0.0278 -1.141,0.0499 -1.7005,0.0777 -0.916,-5.40854 0.2578,-10.88364 1.2617,-16.19232 z"
     id="path3087"
     style="fill:none"
     inkscape:connector-curvature="0" />
  <path
     fill="#b6b6b6"
     d=" M 243.49 269.64 C 251.84 262.22 264.08 259.37 274.67 263.27 C 279.17 264.78 282.56 268.22 285.76 271.56 C 290.35 267.63 295.28 263.66 301.34 262.36 C 308.78 260.76 317.00 261.43 323.62 265.40 C 328.96 268.55 332.63 274.17 333.83 280.21 C 334.97 285.73 334.71 291.40 334.72 297.00 C 334.64 310.98 334.80 324.98 334.69 338.96 C 335.10 341.59 331.98 342.02 330.07 341.99 C 324.16 341.97 318.20 342.36 312.32 341.71 C 310.29 340.59 310.95 337.94 310.69 336.04 C 310.75 323.36 310.69 310.68 310.76 298.00 C 310.70 293.55 311.02 288.88 309.33 284.66 C 306.49 279.01 298.06 280.24 294.31 284.30 C 290.61 288.18 290.34 293.91 289.92 298.96 C 289.38 312.28 289.93 325.63 289.68 338.96 C 290.08 341.11 287.77 341.98 286.02 341.92 C 279.50 342.16 272.95 342.22 266.45 341.55 C 265.24 324.46 266.72 307.29 265.66 290.19 C 265.36 286.97 264.84 282.88 261.44 281.47 C 256.40 279.66 250.13 281.73 247.41 286.42 C 244.83 290.81 244.91 296.09 244.71 301.02 C 244.68 313.04 244.70 325.06 244.77 337.08 C 244.70 338.80 245.03 341.37 242.71 341.68 C 236.23 342.34 229.65 342.09 223.15 341.85 C 220.67 341.76 220.82 338.82 220.73 337.04 C 220.68 315.02 220.81 293.00 220.67 270.98 C 220.67 268.48 221.02 266.00 221.43 263.54 C 227.81 263.24 234.24 262.93 240.62 263.50 C 243.47 263.91 242.86 267.57 243.49 269.64 Z"
     id="path3089" />
  <path
     fill="#888888"
     d=" M 696.26 270.10 C 701.84 265.43 708.59 261.91 716.00 261.63 C 724.58 261.07 734.04 263.44 739.81 270.20 C 744.45 275.64 745.43 283.11 745.49 290.02 C 745.47 305.69 745.47 321.37 745.50 337.04 C 745.50 338.92 745.45 341.88 742.90 341.90 C 736.66 342.10 730.39 342.15 724.15 341.86 C 721.78 341.73 721.73 338.82 721.72 337.05 C 721.72 325.03 721.76 313.01 721.74 300.99 C 721.60 296.45 721.72 291.83 720.64 287.38 C 719.71 283.53 715.91 280.79 711.99 280.85 C 705.95 280.38 699.92 284.63 698.50 290.54 C 697.39 294.93 697.39 299.49 697.27 303.98 C 697.22 315.00 697.29 326.02 697.28 337.05 C 697.25 338.82 697.21 341.73 694.85 341.86 C 688.61 342.15 682.34 342.10 676.10 341.90 C 673.53 341.88 673.48 338.92 673.50 337.03 C 673.53 314.01 673.53 290.98 673.50 267.96 C 673.35 266.11 673.85 263.36 676.20 263.34 C 681.99 263.20 687.81 263.01 693.59 263.46 C 696.52 264.12 695.79 267.87 696.26 270.10 Z"
     id="path3091" />
  <path
     d="M 993.03125 326.90625 C 988.9875 326.9125 984.9375 327.525 981.0625 328.625 C 969 332.1875 959.25 342.01875 954.9375 353.71875 C 951.3 363.65625 950.75 374.475 951.5 384.9375 C 952.5375 397.3125 957.41875 409.75 966.78125 418.1875 C 976.18125 426.8625 990.21875 429.55 1002.4062 426.1875 C 1008.1063 424.6125 1012.9125 421.0375 1017.5 417.4375 C 1017.0875 424.3625 1019.275 433.25 1013.3125 438.375 C 1007.4 442.075 999.75 441.75625 993.125 440.65625 C 988.9125 440.01875 988.53125 435.14375 986.40625 432.28125 C 977.28125 430.76875 968.025 429.85 958.8125 428.875 C 956.4875 428.2 954.35625 430.2625 954.40625 432.5625 C 953.74375 440.9875 957.1625 449.625 963.5 455.25 C 971.2375 462.5 982.2625 464.56875 992.5 465.21875 C 1005.575 465.71875 1019.625 465.7375 1031.1875 458.6875 C 1039.4 453.9625 1044.1625 445.0125 1045.875 435.9375 C 1048 424.5125 1047.4125 412.8125 1047.5 401.25 C 1047.4625 378.7375 1047.5687 356.25 1047.4688 333.75 C 1047.7562 331.4375 1045.9 329.05 1043.5 329.1875 C 1036.5875 328.9125 1029.6625 328.925 1022.75 329.1875 C 1019.225 329.4375 1019.2563 333.8625 1018.3438 336.375 C 1014.1062 333.475 1009.85 330.40625 1004.9375 328.78125 C 1001.0875 327.49375 997.075 326.9 993.03125 326.90625 z M 999.71875 351 C 1003.8084 351.03605 1007.8789 352.4875 1010.8438 355.375 C 1016.6563 360.5625 1017.7812 368.8875 1017.9688 376.25 C 1018.0938 384 1016.675 392.64375 1010.5625 398.03125 C 1004.6375 403.78125 994.0875 404.10625 988.3125 397.96875 C 981.5 391.13125 981.31875 380.55625 981.84375 371.53125 C 982.34375 363.53125 986.05 354.55625 994.25 351.84375 C 996.01172 351.27344 997.85983 350.98361 999.71875 351 z "
     transform="scale(0.8,0.8)"
     id="path3093"
     style="fill:#888888;fill-opacity:1" />
  <path
     d="M 1125.7812 326.875 C 1115.943 326.76853 1106.2766 330.77969 1099.1562 337.59375 C 1099.1562 334.63125 1099.2313 331.525 1097.3438 329.0625 C 1089.1063 329.025 1080.8812 329.025 1072.6562 329.0625 C 1071.5562 330.825 1070.6437 332.76875 1070.9062 334.90625 C 1070.9812 376.18125 1070.8625 417.45625 1070.9375 458.71875 C 1070.5625 461.10625 1072.4938 463.49375 1075.0312 463.09375 C 1082.9813 463.23125 1090.9625 463.075 1098.9375 463.125 C 1099.7 461.7125 1100.7625 460.3375 1100.625 458.625 C 1100.725 445.7875 1100.5625 432.93125 1100.6875 420.09375 C 1106.925 425.15625 1114.275 429.33125 1122.5 429.65625 C 1135.3125 430.84375 1148.1687 424.825 1156.0312 414.75 C 1163.9938 405.0625 1166.8188 392.25625 1167.0938 379.96875 C 1167.2438 369.43125 1165.9313 358.5125 1160.9688 349.0625 C 1154.9563 337.4125 1143.275 328.3625 1130 327.1875 C 1128.5953 327 1127.1867 326.89021 1125.7812 326.875 z M 1118.4062 351.625 C 1125.0831 351.42454 1131.4516 356.02969 1134 362.1875 C 1136.975 369.375 1137.1 377.4125 1136.375 385.0625 C 1135.7 390.7875 1134.2 396.9625 1129.625 400.875 C 1124.625 405.8625 1116.075 406.18125 1110.375 402.21875 C 1105.35 398.90625 1102.4438 393.20625 1101.4062 387.40625 C 1100.0188 379.59375 1099.7813 371.28125 1102.4688 363.71875 C 1104.4563 357.94375 1109.4375 353.0875 1115.5625 352 C 1116.5187 351.76562 1117.4524 351.65364 1118.4062 351.625 z "
     transform="scale(0.8,0.8)"
     id="path3095"
     style="fill:#1a1a1a" />
  <path
     d="M 1225.4062 326.875 C 1217.4785 326.83777 1209.5781 327.82031 1202.1875 330.75 C 1191.7625 334.95 1184.9563 345.125 1182.3438 355.75 C 1182.8188 356.45 1183.775 357.83125 1184.25 358.53125 C 1192.425 360.24375 1200.7 361.5125 1208.9375 363.0625 C 1210.8 358.9 1212.375 353.5875 1217.1875 352 C 1222.55 350.35 1228.5 350.7375 1233.75 352.625 C 1237.525 354.2 1237.5875 358.81875 1238 362.28125 C 1225.7125 366.48125 1212.575 367.33125 1200.3125 371.59375 C 1194.275 373.63125 1188.6 377.15625 1184.9375 382.46875 C 1176.9125 394.05625 1178.275 411.5625 1188.8125 421.1875 C 1196.9375 428.8875 1208.9687 430.74375 1219.7188 429.28125 C 1227.5687 428.29375 1234.775 424.53125 1241 419.78125 C 1241.9125 422.34375 1242.7125 424.9625 1243.75 427.5 C 1252.075 427.45 1260.3938 427.58125 1268.7188 427.46875 C 1270.4688 427.63125 1271.2687 425.65625 1272.5312 424.78125 C 1264.7938 409.26875 1267.6187 391.65 1267.2188 375 C 1267.0312 364.6875 1268.1312 353.9875 1264.6562 344.0625 C 1260.4562 334.2625 1249.6938 329.06875 1239.5938 327.84375 C 1234.925 327.3 1230.1629 326.89734 1225.4062 326.875 z M 1237.8125 383.8125 C 1237.6 389.75 1238.6 396.8125 1234 401.4375 C 1228.65 406.8625 1218.5 409.85625 1212.5625 403.71875 C 1208.4625 400.10625 1208.75 392.55625 1214 390.15625 C 1221.5125 386.74375 1229.9 385.975 1237.8125 383.8125 z "
     transform="scale(0.8,0.8)"
     id="path3097"
     style="fill:#1a1a1a" />
  <path
     fill="#b6b6b6"
     d=" M 346.28 263.41 C 354.01 263.20 361.74 263.13 369.47 263.46 C 374.97 279.27 380.14 295.19 385.55 311.04 C 388.66 304.23 390.50 296.95 392.91 289.89 C 395.87 281.11 398.69 272.29 401.62 263.50 C 408.07 263.13 414.55 263.25 421.01 263.25 C 422.31 263.37 424.01 263.12 424.76 264.51 C 425.90 265.97 424.81 267.85 424.46 269.40 C 415.99 292.31 407.63 315.25 399.20 338.17 C 396.13 346.23 393.86 354.77 388.98 361.99 C 385.16 367.73 378.49 370.89 371.82 371.83 C 365.09 372.69 358.15 372.55 351.58 370.73 C 351.00 364.92 349.61 359.12 350.07 353.27 C 350.37 352.99 350.99 352.44 351.29 352.16 C 356.76 351.55 363.32 354.08 367.88 349.91 C 370.89 346.56 374.12 341.70 371.94 337.10 C 363.32 314.66 354.92 292.13 346.26 269.71 C 345.34 267.69 345.11 265.38 346.28 263.41 Z"
     id="path3099" />
  <path
     fill="#888888"
     d=" M 482.03 266.98 C 481.79 265.14 483.27 263.24 485.19 263.35 C 491.07 263.13 496.97 263.17 502.85 263.33 C 504.90 263.06 506.20 265.10 505.98 266.96 C 506.03 284.97 505.97 302.99 505.99 321.00 C 505.86 327.85 506.41 334.73 505.55 341.55 C 497.88 342.28 490.11 342.28 482.44 341.55 C 481.99 338.05 481.92 334.52 481.98 331.00 C 482.08 309.66 481.94 288.32 482.03 266.98 Z"
     id="path3101" />
  <path
     fill="#888888"
     d=" M 631.45 263.55 C 637.86 262.91 644.37 263.27 650.81 263.33 C 653.12 263.38 653.64 266.11 653.50 267.95 C 653.47 290.98 653.47 314.01 653.50 337.04 C 653.50 338.92 653.46 341.89 650.90 341.90 C 644.65 342.10 638.38 342.15 632.15 341.86 C 629.77 341.73 629.74 338.82 629.72 337.05 C 629.76 314.01 629.73 290.97 629.73 267.94 C 629.94 266.51 629.64 263.89 631.45 263.55 Z"
     id="path3103" />
</svg>
